<?xml version="1.0" standalone="no"?><!DOCTYPE svg PUBLIC "-//W3C//DTD SVG 1.1//EN" "http://www.w3.org/Graphics/SVG/1.1/DTD/svg11.dtd"><svg t="1776845862403" class="icon" viewBox="0 0 1024 1024" version="1.1" xmlns="http://www.w3.org/2000/svg" p-id="7993" xmlns:xlink="http://www.w3.org/1999/xlink" width="512" height="512"><path d="M512 512m-512 0a512 512 0 1 0 1024 0 512 512 0 1 0-1024 0Z" fill="#A68EC0" p-id="7994"></path><path d="M823.5 512c0-171.9-139.9-311.8-311.8-311.8S199.9 340 199.9 512c0 31.5 4.7 61.9 13.4 90.6 52.3-4.2 115.1 10.1 175 43.4 81.7 45.6 136 114.6 146.3 176.9C695.9 811.2 823.5 676.2 823.5 512zM660 673.2c-5.1 5.1-11.7 7.6-18.4 7.6-6.7 0-13.3-2.5-18.4-7.6L493.4 543.3c-4.9-4.9-7.6-11.5-7.6-18.4V356.1c0-14.3 11.7-26 26-26s26 11.6 26 26v158.1l122.3 122.3c10 10.2 10 26.6-0.1 36.7z" fill="#FFFFFF" p-id="7995"></path><path d="M388.3 646c-59.8-33.4-122.7-47.6-175-43.4 38.9 127.9 157.9 221.2 298.4 221.2 7.7 0 15.3-0.3 22.9-0.8-10.4-62.4-64.6-131.4-146.3-177z" fill="#FFFFFF" opacity=".4" p-id="7996"></path></svg>